<?xml version="1.0" encoding="utf-8"?>
<!-- Generator: Adobe Illustrator 19.2.1, SVG Export Plug-In . SVG Version: 6.00 Build 0)  -->
<svg version="1.1" id="layer" xmlns="http://www.w3.org/2000/svg" xmlns:xlink="http://www.w3.org/1999/xlink" x="0px" y="0px"
	 viewBox="0 0 652 652" style="enable-background:new 0 0 652 652;" xml:space="preserve">
<style type="text/css">
	.st0{fill:#B9E2EF;}
	.st1{fill:#8D93CE;}
	.st2{fill:#003399;}
	.st3{fill:#049BC9;}
	.st4{fill:#DEDDF1;}
	.st5{fill:#00A7E2;}
	.st6{fill:#12181F;}
</style>
<g transform="translate(7.714 16)">
	<g>
		<path class="st0" d="M49.8,274.7c-18.6,29.7-8.4,68.2,22.7,86c31.2,17.7,71.5,8,90.1-21.7c18.6-29.8,8.4-68.3-22.7-86
			S68.4,245,49.8,274.7 M48,274.8c19.2-30.8,61-40.8,93.2-22.4c32.2,18.3,42.7,58.2,23.5,88.9s-61,40.8-93.2,22.4
			C39.3,345.4,28.7,305.6,48,274.8"/>
		<path class="st1" d="M145.9,280.7c-12.9-29-48-42.6-78.5-30.3c-30.4,12.3-44.7,45.8-31.8,74.9c12.9,29.1,48,42.7,78.5,30.4
			C144.5,343.4,158.7,309.8,145.9,280.7 M149.8,277.3c13.7,30.9-1.4,66.7-33.8,79.8c-32.5,13.1-69.9-1.4-83.7-32.4
			c-13.6-31,1.5-66.7,33.9-79.8C98.6,231.9,136.1,246.3,149.8,277.3"/>
		<path class="st2" d="M115.2,364.8c28.9-10,43.8-40.5,33.3-68.1c-10.5-27.5-42.4-41.8-71.3-31.8c-28.9,10-43.8,40.5-33.3,68
			C54.4,360.6,86.3,374.8,115.2,364.8 M118.5,368.5c-32.6,11.3-68.7-4.8-80.5-35.9c-11.9-31.1,5-65.5,37.6-76.8
			c32.6-11.3,68.6,4.8,80.5,35.9C167.9,322.8,151.1,357.2,118.5,368.5"/>
		<path class="st3" d="M86.6,254.4c-30.7,0-55.6,23.8-55.6,53.1s24.9,53.1,55.6,53.1s55.6-23.8,55.6-53.1
			C142.3,278.2,117.3,254.4,86.6,254.4 M88,248.3c34.7,0,62.8,26.8,62.8,59.9s-28.2,60-62.8,60c-34.6,0-62.7-26.9-62.7-60
			C25.2,275,53.4,248.3,88,248.3"/>
		<path class="st4" d="M124.4,244.1C89.2,226.9,46,240.2,28,273.8c-18.1,33.6-4.2,74.8,31,92c35.2,17.2,78.4,4,96.4-29.6
			c18.1-33.6,4.2-74.8-31-92 M125.2,238.1c37.5,18.3,52.3,62.2,33.1,98c-19.2,35.8-65.2,49.9-102.7,31.6
			c-37.5-18.4-52.3-62.3-33.1-98C41.8,233.8,87.8,219.7,125.2,238.1"/>
		<path class="st5" d="M98.1,256.2c-35.9,0-64.9,27.7-64.9,62c0,34.2,29.1,62,64.9,62s64.9-27.7,64.9-62S133.9,256.2,98.1,256.2
			 M97,254.8c37.1,0,67.2,28.7,67.2,64.1c0,35.4-30.1,64.1-67.2,64.1c-37.1,0-67.2-28.7-67.2-64.1S59.9,254.8,97,254.8"/>
	</g>
	<path class="st6" d="M251.2,310.8c3.9,0,7.5-0.9,10.8-2.8c3.3-1.9,5.9-4.4,8-7.5l8,6c-3,4.1-7,7.5-11.5,9.9
		c-4.7,2.5-10,3.7-15.3,3.7c-18.7-0.3-33.5-15.7-33.2-34.4c0.1-4.2,0.9-8.4,2.6-12.3c3.4-8,9.8-14.4,17.7-17.8
		c4-1.8,8.3-2.7,12.9-2.7c5.5,0,10.6,1.2,15.3,3.7c4.5,2.4,8.5,5.8,11.5,9.9l-8,6c-2.1-3.1-4.8-5.7-8-7.5c-3.3-1.9-6.9-2.8-10.8-2.8
		c-3.2,0-6.2,0.6-9,1.9c-2.8,1.3-5.2,3-7.3,5.2c-6.7,7.2-8.6,17.6-4.9,26.7c1.2,2.9,2.9,5.5,5,7.8c2.1,2.2,4.4,3.9,7.3,5.2
		C244.9,310.2,247.9,310.8,251.2,310.8z M306.2,320.1h9.9v-67.3h-9.9L306.2,320.1L306.2,320.1z M393.6,283.2
		c-1.8,5.6-5.5,10.3-10.5,13.3c-0.2,0.1-0.3,0.2-0.4,0.3l11.9,23.3h-10.4l-10.4-20.3c-1.5,0.3-3.1,0.4-4.6,0.4h-12v20h-9.9v-67.6
		h21.9c5.1,0,10.1,1.4,14.4,4c5.4,3.3,9.2,8.6,10.5,14.8v0.4c0.1,0.3,0.2,0.6,0.2,1l0.2,1.1v0.1l0.1,1.1v2.5l-0.1,1.1v0.2l-0.2,1.1
		c0,0.3-0.1,0.7-0.2,1v0.4C393.9,282.2,393.7,282.8,393.6,283.2z M370.4,291.6c2.1,0,3.9-0.4,5.5-1.3c1.7-0.9,3.2-2,4.4-3.4
		c1.2-1.4,2.2-3,2.9-4.8c1.5-3.6,1.5-7.7,0-11.3c-1.3-3.6-3.9-6.5-7.3-8.2c-1.7-0.8-3.5-1.3-5.5-1.3h-13.1v30.3H370.4L370.4,291.6z
		 M452.4,310.8c4,0,7.6-0.9,10.9-2.8c3.3-1.9,5.9-4.4,8-7.5l8,6c-3,4.1-7,7.5-11.5,9.9c-4.7,2.5-10,3.7-15.3,3.7
		c-18.7-0.3-33.5-15.7-33.2-34.4c0.1-4.2,0.9-8.4,2.6-12.3c3.4-8,9.8-14.4,17.7-17.8c4-1.8,8.3-2.7,12.9-2.7
		c5.5,0,10.6,1.2,15.3,3.7c4.5,2.4,8.5,5.8,11.5,9.9l-8,6c-2.1-3.1-4.8-5.7-8-7.5c-3.3-1.9-6.9-2.8-10.8-2.8c-3.2,0-6.2,0.6-9,1.9
		c-2.8,1.3-5.2,3-7.3,5.2c-6.7,7.2-8.6,17.6-4.9,26.7c1.2,2.9,2.9,5.5,5,7.8c2.1,2.2,4.5,3.9,7.3,5.2
		C446.2,310.2,449.2,310.8,452.4,310.8L452.4,310.8z M517.2,310.6h27.5v9.6h-37.4v-67.5h9.9V310.6L517.2,310.6z M581.6,310.3h29.9
		v9.6h-39.7v-67.1h39.1v9.4h-29.4v22.8h26.4v9.2h-26.3V310.3z M599.5,373l3-6.4l3,6.4H599.5L599.5,373z M603.2,360h-1.3l-11.1,23.7
		h3.7l3.5-7.4h9l3.5,7.4h3.6C614.1,383.7,603.2,360,603.2,360z M562.2,360h-3.3v23.7h12v-3.3h-8.7V360z M535.8,383.7h13.9v-3.3
		h-10.5v-7.8h10.5v-3.3h-10.5v-5.9h10.6V360h-14V383.7z M521.6,360l-8.8,17.8L504,360h-1.1l-3.4,23.7h3.2l2.1-15l7.5,15h1.2
		l7.4-14.9l2,14.9h3.3l-3.4-23.7C522.8,360,521.6,360,521.6,360z M579.3,383.7h3.4V360h-3.3L579.3,383.7L579.3,383.7z M600.2,353.3
		c0.4,0,1.1,0.2,2.1,0.7c1.4,0.6,2.3,0.9,2.9,0.9c1.8,0,3.1-1,4.1-3l-2-1.7c-0.7,1.1-1.3,1.7-1.9,1.7c-0.3,0-1-0.3-2.1-0.8
		c-1.1-0.6-2.1-0.8-2.8-0.8c-0.4,0-0.7,0-1.1,0.1c-0.3,0.1-0.6,0.2-0.8,0.4c-0.7,0.5-1.2,1.1-1.7,1.8l1.6,2.4
		C599,353.9,599.6,353.3,600.2,353.3L600.2,353.3z M474.2,368.8l-5.4-8.9h-4l7.8,12.6v11.2h3.4v-11.2l7.6-12.5h-3.9
		C479.6,360,474.2,368.8,474.2,368.8z M456.4,371.8c-0.6-0.5-1.2-0.8-1.8-1.1c2.4-1.9,3-5.3,1.3-7.9c-0.6-0.9-1.5-1.7-2.5-2.2
		c-1.1-0.4-2.5-0.6-4.4-0.6h-5.1v23.8h6.9c2.4,0,4.3-0.7,5.7-2.1c1.5-1.4,2.2-3,2.2-5c0-1.1-0.2-1.9-0.6-2.8
		C457.7,373.1,457.1,372.3,456.4,371.8L456.4,371.8z M454.5,378.6c-0.4,0.6-0.9,1-1.6,1.3c-0.7,0.3-1.9,0.4-3.4,0.4h-2.2v-7.5
		c2.5,0,3.9,0.1,4.6,0.3c1,0.2,1.8,0.7,2.4,1.3c0.6,0.7,0.8,1.4,0.8,2.2C455.1,377.4,454.9,378,454.5,378.6L454.5,378.6z
		 M449.3,363.4c1.4,0,2.5,0.3,3.2,0.7c0.6,0.6,0.8,1.1,0.8,2c0,0.6-0.2,1.2-0.6,1.8c-0.4,0.5-0.9,0.9-1.4,1.1
		c-0.7,0.3-2.4,0.4-4,0.4v-6.1L449.3,363.4L449.3,363.4z"/>
</g>
</svg>
