<?xml version="1.0" encoding="utf-8"?>
<!-- Generator: Adobe Illustrator 19.2.1, SVG Export Plug-In . SVG Version: 6.00 Build 0)  -->
<svg version="1.1" id="layer" xmlns="http://www.w3.org/2000/svg" xmlns:xlink="http://www.w3.org/1999/xlink" x="0px" y="0px"
	 viewBox="0 0 652 652" style="enable-background:new 0 0 652 652;" xml:space="preserve">
<style type="text/css">
	.st0{fill:#1D1C1B;}
	.st1{fill:#BF311A;}
</style>
<g transform="translate(6 13)">
	<path class="st0" d="M303.3,395.7l-3.6-4.4l-1.8,1.3c-2.9,2.3-5.4,3.8-8.9,3.7c-5-0.2-9.2-3.8-9.3-9c-0.1-3.9,2.3-7,5.9-9.4
		l2.5-1.6l-0.7-1c-1.6-2.1-2.6-3.6-2.6-6.2c0-3.8,3-6.8,7-6.8c4.1,0,7,2.9,7.2,6.6c0.1,2.8-1.6,4.7-3.9,6.6l-1.9,1.4l6.8,8.9
		l3.8-4.2l2.5,2.2l-4,4.8l5.5,7.2H303.3z M290.1,378.8l-2.7,1.8c-2.5,1.7-4.2,4.4-4.1,6.5c0.2,2.9,1.8,5,4.6,5.8
		c1.8,0.5,4.6-0.3,6.7-2l3-2.4L290.1,378.8L290.1,378.8z M291.9,365.4c-1.9,0-3.3,1.6-3.4,3.6c-0.1,1.2,0.3,2,1.1,3l1.6,2.3l2.3-1.7
		c1.5-1.1,2.4-2.4,2.2-4.2C295.3,366.3,293.7,365.3,291.9,365.4z M81.9,396.4c-9.4-0.1-17-7.7-17.1-17.1c0-9.4,7.7-17.1,17.1-17.1
		S99,369.9,99,379.3C98.9,388.8,91.3,396.4,81.9,396.4L81.9,396.4z M81.5,365.8C74,365.9,68,372.1,68,379.5s6.2,13.5,13.7,13.4
		c7.6-0.1,13.6-6.2,13.6-13.8c0,0,0,0,0,0c-0.1-7.4-6.1-13.4-13.6-13.4C81.7,365.8,81.6,365.8,81.5,365.8z M42.5,395.7v-16H25.8v16
		h-3.8v-32.9h3.6v13.5h16.8v-13.5h3.8v32.9H42.5L42.5,395.7z M227.6,396.3c-4.8,0-8.6-3-9.9-7.6l-0.2-1l3.3-1l0.4,1.1
		c1.1,3,3.2,5,6.2,5c3.5,0,6.7-2.8,6.7-6.3c0-2.5-1.2-4.4-3.4-5.5l-5.2-2.4c-3.6-1.7-6.3-4.1-6.3-8.1c0-4.7,4.2-8.3,9-8.4
		c3.6-0.1,6.1,1.6,8.2,4.6l0.4,0.5l-2.9,1.8l-0.8-1.1c-1.2-1.7-2.8-2.6-5-2.4c-2.8,0.1-5.4,2.2-5.4,4.9c0.1,2.3,1.6,3.7,3.7,4.7
		l5.5,2.5c3.6,1.6,5.7,4.2,5.9,8.1c0.1,5.6-4.3,10.4-10,10.5C227.8,396.3,227.7,396.3,227.6,396.3L227.6,396.3z M187.4,395.7v-32.9
		h3.7v29.4h8.9v3.4C200,395.7,187.4,395.7,187.4,395.7z M477.8,396.4c-9.4-0.1-17-7.7-17-17.1c0-9.4,7.7-17.1,17.1-17.1
		c9.4,0,17.1,7.7,17.1,17.1C494.9,388.8,487.2,396.4,477.8,396.4z M477.5,365.8c-7.5,0.1-13.5,6.2-13.4,13.7
		c0.1,7.5,6.2,13.5,13.7,13.4c7.5,0,13.6-6.2,13.6-13.7c0,0,0-0.1,0-0.1c-0.1-7.4-6.1-13.4-13.6-13.4
		C477.7,365.8,477.6,365.8,477.5,365.8z M431.9,396.3c-4.8,0-8.6-3-9.9-7.6l-0.2-1l3.3-1l0.4,1.1c1,3,3.1,5,6.2,5
		c3.6,0,6.7-2.8,6.7-6.3c0-2.5-1.2-4.4-3.4-5.5l-5.2-2.4c-3.6-1.7-6.3-4.1-6.3-8.1c0-4.7,4.2-8.3,9-8.4c3.6-0.1,6.1,1.6,8.2,4.6
		l0.4,0.5l-2.9,1.8l-0.8-1.1c-1.3-1.7-2.9-2.6-5-2.4c-2.8,0.1-5.4,2.2-5.4,4.9c0.1,2.3,1.6,3.7,3.7,4.7l5.5,2.5
		c3.6,1.6,5.7,4.2,5.9,8.1c0.1,5.6-4.3,10.4-10,10.5C432.2,396.3,432.1,396.3,431.9,396.3L431.9,396.3z M391.3,366.3v9.7h12.8v3.2
		h-13v13h13.3v3.4h-17v-32.9h17.1v3.4H391.3L391.3,366.3z M594.2,396.3c-4.8,0-8.7-3-9.9-7.6l-0.2-1l3.3-1l0.4,1.1
		c1.1,3,3.1,5,6.2,5c3.6,0,6.7-2.8,6.7-6.3c0-2.5-1.2-4.4-3.4-5.5l-5.2-2.4c-3.6-1.7-6.2-4.1-6.2-8.1c-0.1-4.7,4.1-8.3,8.9-8.4
		c3.6-0.1,6.1,1.6,8.2,4.6l0.4,0.5l-2.9,1.8l-0.8-1.1c-1.1-1.7-3-2.6-5-2.4c-2.8,0.1-5.4,2.2-5.3,4.9c0.1,2.3,1.6,3.7,3.7,4.7
		l5.5,2.5c3.6,1.6,5.7,4.2,5.9,8.1c0.1,5.6-4.3,10.4-10,10.5C594.4,396.3,594.3,396.3,594.2,396.3z M557.9,366.3v29.4h-3.7v-29.4
		h-7.8v-3.4H566v3.4H557.9L557.9,366.3z M527.9,395.7l-10-14.5h-1.1v14.5h-3.6v-32.9h6.2c5.7,0,10.8,2.4,10.7,9.2
		c-0.2,5.8-3.7,8.5-8.3,8.9l10.4,14.8C532.3,395.7,527.9,395.7,527.9,395.7z M519.8,366.3H517v11.8h2.3c3.6,0,7.2-2,7.2-6.1
		C526.5,367.3,523.3,366.3,519.8,366.3z M364,395.7l-10-14.5h-1.1v14.5h-3.6v-32.9h6.3c5.7,0,10.8,2.4,10.7,9.2
		c-0.2,5.8-3.7,8.5-8.3,8.9l10.4,14.8C368.4,395.7,364,395.7,364,395.7z M356,366.3h-2.9v11.8h2.3c3.6,0,7.2-2,7.2-6.1
		C362.6,367.3,359.5,366.3,356,366.3z M155.9,366.3v9.7h12.8v3.2h-12.9v13h13.3v3.4h-17v-32.9h17.1v3.4
		C169.2,366.3,155.9,366.3,155.9,366.3z M124.8,366.3v29.4h-3.7v-29.4h-7.8v-3.4h19.4v3.4H124.8L124.8,366.3z M47.4,336.2
		c-18.1,0.3-32.9-15.1-33.2-33.3c-0.2-19,15.1-34.6,34.1-34.8c0.2,0,0.4,0,0.6,0c11.3,0.2,19.1,3.8,26.3,12.5l-6.5,5.8
		c-4.8-6.3-12.2-10-20.1-10c-14.9-0.4-25.9,12.5-25.9,26.9c0,13.5,10.3,24.3,25,24.7c10.9,0.3,21-7.3,21.3-18.5H53.6v-8h25v3.7
		C78.7,322.2,66.6,335.8,47.4,336.2z M604.5,334.7l-7.9-17H568l-7.6,17H551l30.8-68.4l32.5,68.4H604.5L604.5,334.7z M581.7,286.7
		l-10.5,23.7H593C593,310.4,581.7,286.7,581.7,286.7z M526.9,334.7h9v-65.8h-9V334.7z M478.4,334.7v-65.8h8.9V326h20v8.7
		L478.4,334.7L478.4,334.7z M427.5,334.7l-0.2-65.8h34.9v8.7h-26.1v16.8h25.7v7.8h-25.7V326h26.1v8.7
		C462.2,334.7,427.5,334.7,427.5,334.7z M401.7,334.7l-8.4-41.3l-20.3,43.8l-20.5-42.4l-8.7,39.9H335l14.2-67.9l23.9,50.7l23.5-50.8
		l14.2,68L401.7,334.7L401.7,334.7z M237.3,287.7v47h-9v-68l49.7,48.7v-46.5h8.9v67.7L237.3,287.7L237.3,287.7z M203.6,334.7l-8-17
		h-28.5l-7.5,17H150l30.8-68.4l32.5,68.4H203.6z M180.8,286.7l-10.4,23.7h21.8C192.1,310.4,180.8,286.7,180.8,286.7z M127.3,334.7
		L107,306.5h-2.9v28.2h-9.3v-65.8h14.5c11.3,0,22.8,3.3,23.3,17.9c0.2,9.6-5.8,16.3-15.7,19.2l21.1,28.7H127.3L127.3,334.7z
		 M108.7,276.5h-4.6v22.7h3.5c7.8,0,16.2-3.8,15.8-12.1C123.1,278.3,115.8,276.5,108.7,276.5z"/>
	<path class="st1" d="M592.7,238.7c-2,0.8-11.2,2.3-11.2,10.6v12.3c0-4.2,3-8.5,6.6-9.2l10.4-2.5c3.6-1,11.3-3.5,11.3-10.1v-17.5
		c-0.2,8.3-4.3,11.3-6.9,12.9C599.3,237.5,595.4,237.7,592.7,238.7"/>
</g>
</svg>
