<?xml version="1.0" encoding="utf-8"?>
<!-- Generator: Adobe Illustrator 19.2.1, SVG Export Plug-In . SVG Version: 6.00 Build 0)  -->
<svg version="1.1" id="layer" xmlns="http://www.w3.org/2000/svg" xmlns:xlink="http://www.w3.org/1999/xlink" x="0px" y="0px"
	 viewBox="0 0 652 652" style="enable-background:new 0 0 652 652;" xml:space="preserve">
<style type="text/css">
	.st0{fill:#3C3C3C;}
</style>
<g transform="translate(10 16)">
	<path class="st0" d="M317.8,373H337v4.5h-14.7v8.2H337v4.5h-14.7V401H337v4.5h-19.3C317.8,405.5,317.8,373,317.8,373z M377.5,373
		h4.6v32.7h-4.6V373z M241.2,371.8l-0.2,0.5l-7.3,12l-7.5-12l-0.3-0.5h-5.5l0.7,1.3l10.3,16.5v15.7h4.7v-15.7l10-16.5l0.7-1.3H241.2
		L241.2,371.8z M210.5,388.5c-0.7-0.5-1.5-1-2.5-1.5c0.7-0.5,1.5-1.3,2-2.3c0.7-1.2,1.3-2.7,1.3-4.2c0-1.7-0.5-3.3-1.3-4.5
		c-1-1.2-2-2.5-3.5-3c-2-0.8-4.1-1.2-6.3-1H193v33.5h9.5c3.3,0,6-1,8-2.7c2-2,3-4.3,3-7c0-1.5-0.2-2.7-0.7-3.8
		C212.3,390.3,211.5,389.3,210.5,388.5L210.5,388.5z M207.8,398c-0.5,0.9-1.3,1.5-2.3,1.8c-1,0.5-2.5,0.5-4.7,0.5h-3v-10.5h1
		c2.7,0,4.6,0,5.5,0.2c1.5,0.3,2.5,1,3.3,2c0.7,1,1.2,2.1,1.2,3.3C208.7,396.3,208.5,397.3,207.8,398z M197.8,376.5h2.7
		c2,0,3.5,0.5,4.2,1c0.7,0.7,1.3,1.5,1.3,2.7c0,1-0.2,1.7-0.7,2.5c-0.5,0.7-1.3,1.2-2,1.7c-1.6,0.4-3.1,0.5-4.7,0.5h-1v-8.5
		C197.5,376.5,197.8,376.5,197.8,376.5z M409.8,373H408l-15.5,32.7h5l5-10.3H415l5,10.3h5C425,405.8,409.8,373,409.8,373z
		 M404.7,390.7l4.3-8.7l4.2,8.7L404.7,390.7L404.7,390.7z M405.3,363.8c0.7,0,1.7,0.3,3,1c1.7,0.7,3.2,1.2,4,1.2
		c2.2,0,4.2-1.5,5.7-4.2l-2.7-2.3c-1,1.5-2,2.3-2.7,2.3c-0.5,0-1.5-0.5-3-1.3c-1.2-0.6-2.6-1-4-1c-0.6,0-1,0-1.3,0.2
		c-0.6,0-0.7,0.2-1.3,0.5c-0.5,0.2-0.7,0.5-1.3,1c-0.5,0.6-0.7,0.8-1.3,1.5l-0.7,1l2.7,2.5C403.5,364.6,404.2,363.8,405.3,363.8
		L405.3,363.8z M301,373l4.7,32.5h-4.5l-3-20.5l-10,20.5h-1.8L276,384.8l-2.7,20.7h-4.5l4.8-32.5h1.5l12.2,24.5l12.3-24.5
		C299.5,373,301,373,301,373z M354.3,401h12v4.5h-16.6V373h4.6C354.3,373,354.3,401,354.3,401z M10.5,208.3h18.3v111H10.5V208.3z
		 M74.5,248.5v70.7H56.2V207l75.8,72v-70.7h18.3v112.2C150.3,320.5,74.5,248.5,74.5,248.5z M196.2,248.5v70.7H178V207l75.8,72v-70.7
		H272v112.2C272,320.5,196.2,248.5,196.2,248.5z M290.7,301.5l13.8-11.5c5.3,7,13.7,13.2,23.5,13.2c10.7,0,17-4.7,17-12.7
		c0-8.2-5.3-13.3-16-18l-8.7-3.7c-16.8-7.3-25-18-25-32.3c0-17.7,16-29.5,33-29.5c11.9-0.4,23.4,4.8,31,14l-12.5,13
		c-5.7-7-10.7-9.7-18.7-9.7c-7.5,0-14.7,4.5-14.7,12c0,7.3,5,12.2,16,17l8.5,4c15.3,6.5,25.5,16.3,25.5,31.8
		c0,18.7-14,31.5-35.3,31.5C311.2,320.5,297.7,313,290.7,301.5z M384,208.3h18.3v111H384V208.3z M430,208.3h35.3
		c33.3,0,58.3,24,58.3,55.5c0,31.5-25,55.5-58.3,55.5H430V208.3z M465,302.3c24,0,39.7-16.7,39.7-38.5c0-22-15.7-38.5-39.7-38.5h-17
		v77.3h17V302.3z M544.7,208.3h65.8V226h-47.8v28.3H601v17.5h-38.3v29.7h47.8v17.8h-65.7L544.7,208.3L544.7,208.3z"/>
</g>
</svg>
