<?xml version="1.0" encoding="utf-8"?>
<!-- Generator: Adobe Illustrator 19.2.1, SVG Export Plug-In . SVG Version: 6.00 Build 0)  -->
<svg version="1.1" id="layer" xmlns="http://www.w3.org/2000/svg" xmlns:xlink="http://www.w3.org/1999/xlink" x="0px" y="0px"
	 viewBox="0 0 652 652" style="enable-background:new 0 0 652 652;" xml:space="preserve">
<style type="text/css">
	.st0{fill:#8EA5AF;}
</style>
<g>
	<path class="st0" d="M118.1,571.8h27.8c9.4,0,15-5.4,15-13.7c0-5.2-2.3-9.4-7.1-12.2c2.6-1.9,4-4.7,4-8.4c0-7.3-4.4-11.2-13.3-11.2
		h-26.4V571.8z M123.8,566.6v-17H147c5.2,0,8.2,3.5,8.2,8.4c0,5.2-3,8.6-8.2,8.6C147,566.6,123.8,566.6,123.8,566.6z M123.8,544.3
		v-12.8H145c4.9,0,7.2,2.1,7.2,6.4c0,4-2.4,6.4-7.2,6.4L123.8,544.3L123.8,544.3z M188.1,571.8h5.5v-22.7l20.2-22.7h-7.1l-15.9,18
		l-15.9-18h-6.9l20.1,22.7V571.8z M256.9,571.8h5.5v-35.6l17.7,27l17.8-27.1v35.6h5.3v-45.5h-5.1l-18.1,27.8L262,526.2h-5.1
		L256.9,571.8L256.9,571.8z M323,571.8h36.9v-5.2h-31.4v-16.4h17.9V545h-17.8v-13.3h29.5v-5.2H323L323,571.8L323,571.8z
		 M374.8,571.8h34.6v-5.2h-29.2v-40.3h-5.6v45.5H374.8z M422.9,572h5.6v-45.9h-5.6V572z M477.9,509.9h-3.3c-0.9,2-2.2,3-3.9,3
		c-0.8,0-1.5-0.2-2.2-0.5l-3.8-1.3c-0.7-0.2-1.4-0.4-2.2-0.4c-3.9,0-6.7,2.7-7.9,7.5h3.2c0.8-1.9,2.2-2.8,3.7-2.8
		c0.9,0,1.6,0.1,2.2,0.3l3.8,1.2c0.9,0.3,1.9,0.5,2.7,0.5C474,517.4,476.5,514.8,477.9,509.9z M441.9,571.8h6l5.9-12.2h24.6
		l6.1,12.2h6l-22.1-45.5h-4.7C463.7,526.3,441.9,571.8,441.9,571.8z M456.3,554.2l9.8-20.1l9.8,20.1
		C475.9,554.2,456.3,554.2,456.3,554.2z M435.9,301.7c15.4-1.1,28.6-10.7,39.7-16.9c22-11.9,41.8-16.9,40.3-49
		c-5.5-3.9-10.5-7.3-15.4-11.2c-21.5-1.2-63.5,2.2-63.5,28.1C431.4,262.8,435.3,287.1,435.9,301.7z M416.5,222.9
		c-3.3,3.4-3.3,2.2-4.4,8.4h1.7c1.7-1.7,2.2-1.1,3.8-3.9c1.1-1.7,1.1-1.7,1.7-4.5H416.5z M413.8,158.2l-1.7,56.3h4.4l2.8-2.8
		c-3.8-10.7-1.7-38.3-1.7-53.4L413.8,158.2L413.8,158.2z M412.1,316.4c2.2,0,3.8-3.5,5.6-3.5c2.2-3.9,2.7-6.7,2.7-14
		c-4.5-3.9-5-37.2-1.1-47.7h-4.4c-1.1,1-0.6,0.5-2.8,1.6C409.9,272.9,412.1,293.2,412.1,316.4z M392.8,352.3c-0.6,2.8-1,5.1-1,7.3
		c-3.4,6.3,1,14.7,1,15.3c-3.3-5.1,8.3,10.1,12.2,0.6c-1.7-3.4-4.4-24.2-5.5-28.2C397.8,347.3,394.5,352.3,392.8,352.3L392.8,352.3z
		 M23.4,319.7h5.5c1.1-2.8,3.8-6.3,4.4-8.4c0.6-10.8-5.5-22.6-2.8-37.8c4.5-25.3,4.5-81.5,0-105.8c-3.3-16.9-1.6-32-7.1-44.9
		c-1.1,1.6-0.6,0.5-1.1,2.8c-2.8,4.5-2.2,19.7-1.7,27c1.1,7.9,1.7,28.6,1.7,43.3C22.3,239.2,23.4,272.5,23.4,319.7z M224.7,166.6
		c-16,27.6-46.3,50.6-72.8,68.7c-10.4,7.3-22,7.3-34.6,12.9c-10.6,4.5-33.7,20.3-49.6,9.5c-7.8-2.8-15.5-15.2-19.4-22.5
		c-0.6,0.6-0.6,1.1-1.1,1.7c-3.3,7.9,1.1,21.3-4.4,28.1c3.4,3.5,2.8,9.1,2.8,16.9h-3.9c0,9.1,2.8,13,3.8,19.8
		c-0.5,2.8-0.5,5.6-1,8.4c2.2,12.5,1,22.5,8.2,32.1c3.8,5.6,12.2,3.9,15,11.2c14.8,22-34.3,48.4-47,38.3c-3.7-5.1-9.4-16.9-11-22.5
		v-19.7C2.4,318,7.4,291,5.8,254.9C4.7,233-0.3,202.1,3,180.7c-1.9-7.9-2.4-16.1-1.7-24.2c2.2-12.4-4.4-27.6-2.8-36.5
		C3.5,94,37.2,72.6,63.7,72c1.1,3.4,1.1,2.2,2.8,5.6c6,9.6,7.1,26.5,8.2,39.4c0.6,5.1-3.4,9.6-1.7,15.8c5.5,19.7,7.2,42.1,15.4,61.8
		c5.5,13.1,5,33.3,23.1,33.9c12.2,11.8,41.4-14,48.6-22.6c2.2-2.8,7.7-4.5,9.4-7.3c12.2-18,23.1-34.9,35.9-51.8
		c5-6.2,6.1-20.2,9.9-27.1c1-1.7,5.5-1.1,5.5-1.1c7.7-12.9,5.4-31.5,24.8-32.6c7.1-5.1,22,1.1,25.8,7.3c8.9,12.9-3.7,67.5-1,96.8
		c2.8,28.1-8.8,84.9-1.7,118.1c3.8,15.8,5,36,9.9,50.6v8.4c5,13.6,14.3,27.1,16.6,42.2c-4.4,4-6.6,4.6-15.4,4.6
		c0-0.6-14.3-19.2-15-19.7l-8.2-1.8L244,380.5c-3.3-6.2,0-12.4-2.8-19.7c-3.7-13.6-15.9-45.1-11-63.7c-4.4-0.6-2.8-17.4-2.8-26.5
		c3.4-6.7-2.2-18-1.1-27c2.2-21.3-0.5-51.2,2.8-77.1L224.7,166.6L224.7,166.6z M394.2,414.8c-3.7-1.3-7.3-2.8-10.8-4.6
		c-26.5,2.2-42.5-25.8-26.5-49.4c9.9-14.1,27.6-22,40.3-36.6c-4.4-6.3-4.4-43.3-4.4-63.1c-12.6-1.1-24.8,3.9-38.6,1.2
		c-1.7-3.5-2.2-4.6-2.8-9.6c10-7.9,18.3-21.3,29.3-28.1c3.7-1.7,8.2-2.8,12.2-4.6v-5.6c0.9-1.1,3.3-44.5,2.7-50.6
		c-8.3-0.7-11,0-13.9-6.8c5.6-3.9,11-7.3,16.6-11.2c4.4-8.4-0.6-15.7,2.8-25.3c5.4-16.9,23.1-28.7,41.3-32.8l2.8,4.6
		c-1.1,9-2.8,18-3.8,26.4c3.3,2.2,0.5,0,2.7,2.8c21-16.3,97.6-42.8,126.8-20.8c5,6.2,9.4,10.7,9.4,22.5
		c-4.4,5.6-15.4,25.9-23.2,20.9c-3.3-2.8-3.3-8.4-2.7-15.3h-2.8c-5-3.8-12.6-1.7-19.3-4.5c-24.8-8.4-29.2-5.1-51.3,1.7
		c-6,1.8-11-0.6-19.3,2.8c-7.1,3.5-12.6,9.6-22,11.2c-1.7,15.9-5,71-2.8,77.1c1.7,1.1,1.7,1.1,4.5,1.7
		c12.6-10.7,63.4-29.8,82.7-22.5c9.4,3.9,19.3-1.1,22.1,9.5h3.7c10,44.5-51.2,79.9-83.7,95.7c-9.4,4.5-23.2,10.1-29.9,16.3
		c0.6,2.2,1.7,20.3,2.2,24.8c2.2,23.1,2.2,28.7,2.8,37.7v1.7h6.6c12.2,5.1,49.6-3.9,66.2-8.4c7.7-2.2,19.3-2.8,24.8-1.7
		c33.8-9.4,68.6-14.5,103.6-15.3l-1.6,6.7c-7.8,1.2-10.5,5.1-16.6,7.4c-16.6,5.1-36.4,3.9-49.6,11.2c-17.1-2.2-35.3,7.3-55.1,14
		c-3.8,1.1-8.2-1.1-12.2,0c-26.6,8.5-53.8,14.7-81.4,18.5L394.2,414.8L394.2,414.8z"/>
</g>
</svg>
