<?xml version="1.0" encoding="utf-8"?>
<!-- Generator: Adobe Illustrator 19.2.1, SVG Export Plug-In . SVG Version: 6.00 Build 0)  -->
<svg version="1.1" id="layer" xmlns="http://www.w3.org/2000/svg" xmlns:xlink="http://www.w3.org/1999/xlink" x="0px" y="0px"
	 viewBox="0 0 652 652" style="enable-background:new 0 0 652 652;" xml:space="preserve">
<style type="text/css">
	.st0{fill:#1E1E1E;}
</style>
<g transform="translate(3 12)">
	<path class="st0" d="M328.7,322.7L311,366.2h35.2C346.2,366.2,328.7,322.7,328.7,322.7z M308.9,371.6l-12.1,29.6h-5.8l37.8-93.1
		l37.6,93.1h-5.8l-12.1-29.6H308.9L308.9,371.6z M206.4,329.2c0-9.6,7.8-17.3,17.3-17.3c9.6,0,17.3,7.8,17.3,17.3v1
		c0,4-1.2,8.3-3.5,12.4l-13.8,23.9L210,342.6c-2.3-4-3.5-8.4-3.5-12.4L206.4,329.2L206.4,329.2z M279.3,329.1c0-6-2.4-11.8-6.7-16
		c-6.4-6.4-15.9-8.4-24.3-5c1.3,1.4,2.4,2.9,3.4,4.4c9.2-2.7,18.8,2.6,21.5,11.8c0.5,1.6,0.7,3.2,0.7,4.8v1c0,4-1.2,8.3-3.5,12.4
		l-30.3,52.6l-13.5-23.3l9.3-16.1l6.1-10.5c2.8-4.9,4.2-10.1,4.2-15v-1.1c0.1-12.4-10-22.5-22.4-22.6c-0.1,0-0.1,0-0.2,0
		c-12.4,0-22.6,10-22.6,22.5c0,0,0,0,0,0.1v1.1c0,4.9,1.4,10.1,4.2,15l15.3,26.6l-13.5,23.3L177,342.6c-2.4-4-3.6-8.4-3.5-12.4v-1.1
		c0-9.6,7.8-17.3,17.4-17.3c1.6,0,3.3,0.2,4.8,0.7l0.4-0.5c0.9-1.4,2-2.7,3.1-3.9c-11.6-4.6-24.7,1-29.3,12.6
		c-1.1,2.7-1.6,5.5-1.6,8.4v1.1c0,4.9,1.4,10.1,4.2,15l34.8,60.6l2.3-4l14.2-24.7l14.2,24.7l2.3,4l34.8-60.5
		c2.8-4.9,4.3-10.1,4.3-15.1V329.1L279.3,329.1z M613.1,322.6c-4.5-7.9-12.9-12.7-22-12.7c-12.2-0.6-22.5,8.8-23,21
		c0,0.6,0,1.2,0,1.9c0,7.2,3.3,12.5,9.3,16.1l16.2,8.6c7.8,3.8,18.2,8.1,18.2,18.3c-0.4,12-10.2,21.4-22.2,21.3
		c-10.9,0-17.9-6.7-21.7-16.3l-5,2.3c3.7,11.5,14.4,19.4,26.5,19.4c14.6,0,28.2-11.2,28.2-26.2c0-8.1-3.5-13.6-10.3-17.9l-17.1-9
		c-7.3-3.5-16.3-7.4-16.3-16.8c-0.2-9.4,7.3-17.1,16.6-17.2c0.1,0,0.2,0,0.4,0c8.5,0,14.2,4.2,18.3,10.6L613.1,322.6L613.1,322.6z
		 M490.1,395.8c11.8,0,21.6-2.4,30.3-10.9c7.6-7.6,11.9-17.9,11.9-28.7c0-11.4-4.5-22.2-13-30c-8.6-7.8-17.9-9.8-29.1-9.8h-10.4
		v79.4H490.1z M474,311.1h16.3c13.1,0,23.5,2.2,33.4,11.3c9.3,8.8,14.5,21.1,14.3,33.8c0.1,12.4-4.9,24.4-13.9,33
		c-9.9,9.6-20.5,11.9-33.9,11.9H474L474,311.1L474,311.1z M408.3,353.2c5.6,0,11.2-0.3,15.8-4.2c4.1-3.5,6.5-8.8,6.3-14.2
		c0-6.7-3.1-13.4-9.6-16.3c-4.7-2.3-10.8-2-16.1-2H401v36.7C401,353.2,408.3,353.2,408.3,353.2z M439.8,401.3h-6.6l-29.4-42.7H401
		v42.7h-5.7v-90.2h11.2c7.3,0,14.4,0.1,20.5,4.5c6.1,4.5,9.5,11.8,9.1,19.4c0,15.6-10.9,23.8-25.8,23.5L439.8,401.3z M139.9,316.5
		v-5.4h-43v90.2h43v-5.4h-37.3v-41.2h36.3v-5.4h-36.3v-32.8L139.9,316.5L139.9,316.5z M30.5,353.2c5.6,0,11.2-0.3,15.8-4.2
		c4.1-3.5,6.5-8.8,6.3-14.2c0-6.7-3.1-13.4-9.6-16.3c-4.7-2.3-10.8-2-16.1-2h-3.7v36.7C23.2,353.2,30.5,353.2,30.5,353.2z M62,401.3
		h-6.6l-29.4-42.7h-2.8v42.7h-5.7v-90.2h11.2c7.3,0,14.4,0.1,20.5,4.5c6.1,4.5,9.5,11.8,9.1,19.4c0,15.6-10.9,23.8-25.8,23.5
		C32.5,358.6,62,401.3,62,401.3z M357,275.7h6.1v-43.5h-6.1L357,275.7L357,275.7z M399.6,244.3l5.4,11.7h-11L399.6,244.3
		L399.6,244.3z M407.8,262.1l6.6,13.7h6.6l-20.2-43.6h-2.2L378,275.8h6.8l6.4-13.7L407.8,262.1L407.8,262.1z M302.7,269.7h-19.5
		v-14.3h19.4v-6.1h-19.4v-11.1h19.6v-6.1h-25.6v43.6h25.5L302.7,269.7L302.7,269.7z M220.5,248.1l13.6,27.7h2.3l13.5-27.4l3.7,27.4
		h6.1l-6.2-43.6h-2.1l-16,32.8l-16.1-32.8H217l-6.3,43.6h6L220.5,248.1L220.5,248.1z M395.2,219.8c0.9,0,2.2,0.5,3.8,1.4
		c2.5,1.1,4.3,1.6,5.3,1.6c3.2,0,5.7-1.8,7.5-5.5l-3.7-3.1c-1.3,2.1-2.5,3.1-3.5,3.1c-0.6,0-1.9-0.5-3.8-1.5c-2-1-3.8-1.5-5.1-1.5
		c-0.8,0-1.3,0.1-1.9,0.3c-0.6,0.1-1.1,0.3-1.6,0.7c-0.5,0.4-1,0.8-1.5,1.4c-0.6,0.5-1,1.1-1.6,2l2.9,4.4
		C393,220.9,394.2,219.9,395.2,219.8L395.2,219.8z M341.6,269.8h-15.9v-37.6h-6.2v43.6h22V269.8z"/>
</g>
</svg>
