<?xml version="1.0" encoding="utf-8"?>
<!-- Generator: Adobe Illustrator 19.2.1, SVG Export Plug-In . SVG Version: 6.00 Build 0)  -->
<svg version="1.1" id="layer" xmlns="http://www.w3.org/2000/svg" xmlns:xlink="http://www.w3.org/1999/xlink" x="0px" y="0px"
	 viewBox="0 0 652 652" style="enable-background:new 0 0 652 652;" xml:space="preserve">
<style type="text/css">
	.st0{fill:#6F665C;}
	.st1{fill:#072244;}
</style>
<g transform="translate(11 6)">
	<path class="st0" d="M51.5,433.7H30v-18.3h-4.6v43.8H30v-21.1h21.6v21.1h4.6v-43.8h-4.6C51.5,415.4,51.5,433.7,51.5,433.7z
		 M89.9,414.3c-8.1-0.1-15.7,4.4-19.5,11.5c-5.1,9.1-3.6,20.4,3.7,27.9c4.2,4.4,10.1,6.8,16.2,6.6c6.3,0,11.7-2.2,16.1-6.7
		c4.3-4.3,6.7-10.2,6.6-16.3c0-6.5-2.2-11.9-6.6-16.3C101.9,416.5,96,414.1,89.9,414.3z M105.8,446.7c-3.2,5.7-9.3,9.2-15.8,9.1
		c-4.8,0.1-9.4-1.8-12.7-5.3c-3.5-3.5-5.3-7.9-5.3-13c-0.2-10.1,7.8-18.5,17.9-18.7c0,0,0,0,0.1,0c10,0,18.1,8,18.2,18
		c0,0.2,0,0.3,0,0.5C108.2,440.7,107.4,443.9,105.8,446.7L105.8,446.7z M119.9,419.9h9.6v39.3h4.7v-39.3h9.5v-4.5h-23.8V419.9z
		 M152.7,459.2h24.7v-4.5h-20.2v-16.9h20.2v-4.5h-20.2v-13.4h20.4v-4.5h-24.8C152.7,415.4,152.7,459.2,152.7,459.2z M192.2,415.4
		h-4.6v43.8h21.1v-4.4h-16.5C192.2,454.8,192.2,415.4,192.2,415.4z M229.5,434.3c-3.2-2.3-5-3.7-5.6-4.3c-0.8-0.8-1.5-1.8-2.1-2.8
		c-0.4-0.9-0.6-1.8-0.6-2.7c0-1.5,0.6-2.8,1.7-3.8c1.1-1,2.6-1.6,4.1-1.5c1.4,0,2.5,0.4,3.7,1c1.1,0.7,2.5,2.1,4.1,4.3v0.1l3.7-2.9
		l-0.1-0.1c-1.5-2.2-3.4-4.2-5.6-5.7c-1.8-1-3.7-1.5-5.7-1.5c-2,0-3.7,0.5-5.4,1.4c-3.3,1.8-5.3,5.2-5.2,9c0,2.4,0.8,4.7,2.4,6.7
		c0.8,1.2,3.1,3.3,6.6,6c3.5,2.8,6,5.1,7.4,7c0.9,1.4,1.4,2.8,1.4,4.2c0,1.3-0.4,2.5-0.9,3.6c-1.5,2.3-4.1,3.7-6.9,3.7
		c-3.3,0-6.2-2.3-8.8-7.1l-0.1-0.1l-3.8,2.4v0.1c1.8,3.3,3.8,5.7,6,7.1c2.1,1.4,4.5,2.1,7.1,2.1c3.5,0,6.4-1.1,8.8-3.5
		c4.1-3.9,4.8-10.3,1.5-15C235.7,439.6,233.2,437.2,229.5,434.3L229.5,434.3z M305.4,454.9l-4.4-4.4c1.7-1.2,3.4-2.6,5.2-4.3
		l0.1-0.1l-3.1-3.3l-0.1,0.1c-1.3,1.2-3.1,2.6-5.3,4.3l-4.1-4.3l-6.5-6.9c3-2.5,5-4.6,5.9-6.3c1.1-1.7,1.6-3.3,1.6-4.7
		c0-1.4-0.4-2.7-1.2-4c-0.9-1.3-2.1-2.3-3.5-3c-1.5-0.8-3.2-1.2-4.9-1.2c-2.9,0-5.3,0.9-7.2,2.5c-1.7,1.4-2.5,3.3-2.5,5.5
		c0,1.2,0.4,2.6,1.1,4c0.6,1.4,2.1,3.5,4.4,6.3c-3.1,2.3-5.9,5.1-8.2,8.3c-1.3,1.9-2,4.2-2.1,6.5c0,3,1,5.4,3,7.3c2,2,4.7,3,8,3
		c2.5,0,4.9-0.5,7.2-1.4c3.2-1.5,6.1-3.4,8.7-5.7l5.7,5.9h6.3l-0.2-0.2C308.2,457.8,306.9,456.4,305.4,454.9L305.4,454.9z
		 M280.4,427.3c-0.4-0.7-0.6-1.4-0.6-2.2c0-1,0.5-1.8,1.4-2.5c1.1-0.8,2.4-1.2,3.7-1.1c1.3-0.1,2.6,0.3,3.7,1.1
		c0.9,0.8,1.4,1.6,1.4,2.5c0,0.8-0.4,1.8-1.1,3c-1.1,1.5-2.6,3.1-4.6,4.7C282.7,430.7,281.4,428.9,280.4,427.3z M286.6,455.1
		c-1.4,0.6-3,0.9-4.4,0.9c-2,0-3.6-0.6-5-1.9c-1.3-1-2-2.6-2.1-4.3c0-1.4,0.6-3,1.7-4.6c1.2-1.6,3.5-3.8,7.1-6.5l3.8,4.3l6.7,7
		C291.4,452.5,288.8,454.1,286.6,455.1z M359.3,437.6c2.1-0.9,3.7-2.3,4.7-4.1c1.2-1.8,1.7-4,1.7-6.3c0.2-5.3-3.5-10.1-8.8-11.1
		c-3.2-0.5-6.5-0.7-9.7-0.6h-8.6v43.8h4.5V439h2.2l15.4,20.2h5.7L351,439C354.5,439,357.2,438.5,359.3,437.6z M343.1,434.6v-14.6
		h7.5c3,0,5,0.3,6.3,0.8c1.2,0.5,2.2,1.4,3,2.5c0.8,1.2,1.2,2.5,1.2,3.9c0,1.5-0.4,2.8-1.1,4c-0.8,1.2-1.8,2.1-3.1,2.5
		c-1.4,0.6-3.5,0.8-6.3,0.8C350.4,434.6,343.1,434.6,343.1,434.6z M377.7,459.3h24.7v-4.5h-20.1v-16.9h20.1v-4.5h-20.1v-13.4h20.3
		v-4.5h-24.8C377.7,415.4,377.7,459.3,377.7,459.3z M423.8,434.4c-3.1-2.4-4.9-3.8-5.5-4.4c-0.9-0.8-1.6-1.8-2.1-2.8
		c-0.4-0.9-0.6-1.8-0.6-2.7c0-1.5,0.6-2.8,1.7-3.8c1.1-1.1,2.6-1.6,4.1-1.5c1.3,0,2.5,0.4,3.6,1c1.1,0.7,2.5,2.1,4.1,4.3v0.1
		l3.8-2.9l-0.1-0.1c-1.5-2.2-3.4-4.2-5.7-5.7c-3.4-1.9-7.6-2-11.1-0.2c-3.3,1.8-5.3,5.3-5.3,9c0,2.4,0.8,4.7,2.4,6.7
		c0.9,1.2,3.1,3.3,6.7,6c2.8,2,5.2,4.3,7.3,7c1.7,2.3,1.9,5.3,0.5,7.8c-0.6,1.2-1.6,2-2.8,2.7c-1.2,0.7-2.6,1-4,1
		c-3.3,0-6.3-2.4-8.8-7.1v-0.2l-3.9,2.4l0.1,0.1c1.8,3.3,3.8,5.7,5.9,7.1s4.5,2.1,7.1,2.1h0.1c3.4,0,6.3-1.1,8.7-3.5
		c4.2-3.9,4.8-10.3,1.5-15C430.1,439.7,427.6,437.2,423.8,434.4L423.8,434.4z M465.9,414.3c-8.1-0.1-15.6,4.3-19.5,11.5
		c-5,9.1-3.5,20.4,3.7,27.9c4.2,4.4,10.1,6.8,16.1,6.6c6.3,0,11.8-2.2,16.1-6.7c4.3-4.3,6.7-10.2,6.6-16.3c0-6.5-2.1-11.9-6.5-16.3
		C478.1,416.6,472.1,414.1,465.9,414.3z M481.9,446.7c-1.6,2.8-3.8,5.1-6.5,6.7c-8.7,5-19.8,2-24.8-6.7c-1.6-2.8-2.4-5.9-2.4-9.2
		c-0.3-10.1,7.7-18.5,17.8-18.7c0.1,0,0.1,0,0.2,0c3.2,0,6.2,0.8,9.1,2.5c5.7,3.3,9.2,9.4,9,16C484.3,440.8,483.5,444,481.9,446.7z
		 M521.2,437.6c4.1-1.8,6.7-6,6.4-10.5c0-2.8-0.8-5.3-2.4-7.3c-1.6-2-3.8-3.3-6.3-3.8c-1.7-0.4-4.9-0.6-9.7-0.6h-8.6v43.8h4.6V439
		h2.2l15.4,20.2h5.6L513,439C516.5,439,519.2,438.5,521.2,437.6L521.2,437.6z M505.2,434.6v-14.6h7.4c3,0,5,0.3,6.3,0.8
		c1.3,0.5,2.2,1.4,3,2.5c1.6,2.4,1.6,5.5,0,7.9c-0.7,1.2-1.8,2.1-3.1,2.5c-2,0.7-4.2,0.9-6.3,0.8H505.2z M535.7,419.9h9.5v39.3h4.7
		v-39.3h9.6v-4.5h-23.8C535.7,415.4,535.7,419.9,535.7,419.9z M587.3,441.9c-2.1-2.9-4.7-5.4-7.7-7.5c-3.1-2.4-5-3.8-5.6-4.4
		c-0.8-0.8-1.5-1.8-2.1-2.8c-0.4-0.9-0.6-1.8-0.6-2.7c0-1.5,0.6-2.8,1.7-3.8c1.1-1.1,2.6-1.6,4.1-1.5c1.4,0,2.5,0.4,3.7,1
		c1.1,0.7,2.5,2.1,4.1,4.3l0.1,0.1l3.7-2.9v-0.1c-1.5-2.2-3.4-4.2-5.6-5.7c-1.8-1-3.7-1.5-5.8-1.5c-3.7,0-7.2,1.9-9.2,5.1
		c-0.9,1.5-1.4,3.3-1.4,5.2c0,2.4,0.8,4.7,2.4,6.7c0.8,1.2,3.1,3.3,6.7,6c3.5,2.8,5.9,5.1,7.3,7c0.9,1.4,1.4,2.8,1.4,4.2
		c0,2.7-1.5,5.1-3.8,6.3c-1.2,0.7-2.6,1-4,1c-3.3,0-6.2-2.4-8.8-7.1l-0.1-0.2l-3.9,2.4l0.1,0.1c1.8,3.3,3.7,5.7,5.9,7.1
		c2.1,1.4,4.5,2.1,7.1,2.1c3.3,0.1,6.4-1.2,8.8-3.5C589.9,452.9,590.6,446.5,587.3,441.9L587.3,441.9z"/>
	<path class="st1" d="M199.5,347.1h72.8v-17.2H217v-40.8h55.4V272H217v-31.5h55.9v-17.2h-73.3C199.5,223.3,199.5,347.1,199.5,347.1z
		 M552.1,223.3h-6.5l-58.4,123.8h19.4l18.3-38.9h47.4l18.6,38.9h18.9L552.1,223.3z M533.1,291.1l15.7-33.4l15.7,33.4
		C564.6,291.1,533.1,291.1,533.1,291.1z M125.6,223.3l-45.8,93.4l-46.2-93.4h-6.1L9.7,347.1h17l10.8-78.5l39,78.5H83l38.4-77.8
		l10.8,77.8h17.3l-18-123.8H125.6L125.6,223.3z M337.8,223.3h-17.4v123.8h62.8v-17h-45.4V223.3z M427.6,347.1H445V223.3h-17.4V347.1
		z M536.4,188.4c2.5,0,6.2,1.2,11.2,3.8c6.9,3,11.9,4.6,15,4.6c9,0,16.1-5.2,21.3-15.7l-10.3-8.7c-3.7,5.9-7.1,8.9-10.2,8.9
		c-1.7,0-5.3-1.5-11.1-4.4c-4.5-2.5-9.6-4-14.8-4.3c-1.9,0-3.5,0.2-5.1,0.7s-3.1,1.1-4.6,2.1c-1.5,0.9-3,2.2-4.4,3.7
		c-1.4,1.5-2.9,3.3-4.4,5.5l-2.4,3.4l10.8,9.1c3-5.7,6.1-8.5,9.1-8.5H536.4z"/>
</g>
</svg>
