<?xml version="1.0" encoding="utf-8"?>
<!-- Generator: Adobe Illustrator 19.2.1, SVG Export Plug-In . SVG Version: 6.00 Build 0)  -->
<svg version="1.1" id="layer" xmlns="http://www.w3.org/2000/svg" xmlns:xlink="http://www.w3.org/1999/xlink" x="0px" y="0px"
	 viewBox="0 0 652 652" style="enable-background:new 0 0 652 652;" xml:space="preserve">
<style type="text/css">
	.st0{fill:#B3B1A3;}
	.st1{fill:#555649;}
	.st2{fill:#46166D;}
</style>
<g>
	<path class="st0" d="M99.2,538.2h14.2c1.9,0,3.6,0.3,5.1,0.8c1.5,0.5,2.7,1.2,3.7,2.2c1.4,1.5,2.2,3.3,2.2,5.3v0.1
		c0,1.1-0.2,2-0.5,2.9c-0.3,0.8-0.7,1.6-1.2,2.2c-0.5,0.6-1.1,1.1-1.7,1.6c-0.6,0.4-1.3,0.8-1.9,1.1c1,0.3,1.9,0.7,2.8,1.1
		c0.9,0.5,1.6,1,2.3,1.7c0.6,0.6,1.1,1.4,1.5,2.3c0.4,0.9,0.6,1.9,0.6,3v0.1c0,1.4-0.3,2.7-0.9,3.9c-0.6,1.1-1.4,2.1-2.5,2.9
		c-1.1,0.8-2.3,1.4-3.8,1.8c-1.5,0.4-3.2,0.6-5,0.6H99.2V538.2z M112.9,553.1c2.3,0,4.1-0.5,5.6-1.5c1.4-1,2.1-2.5,2.1-4.5V547
		c0-1.6-0.6-3-1.9-4c-1.3-1-3.1-1.5-5.5-1.5H103v11.5H112.9z M114.2,568.3c2.5,0,4.6-0.5,6-1.6c1.5-1.1,2.2-2.5,2.2-4.4v-0.1
		c0-1.8-0.8-3.2-2.2-4.2c-1.5-1-3.7-1.5-6.6-1.5H103v11.8H114.2z"/>
	<polygon class="st0" points="176.8,558.4 162.9,538.2 167.5,538.2 178.7,554.9 190.1,538.2 194.5,538.2 180.6,558.4 180.6,571.7 
		176.8,571.7 	"/>
	<polygon class="st0" points="263.9,538.2 267.8,538.2 280,556.5 292.2,538.2 296,538.2 296,571.7 292.2,571.7 292.2,544.6 
		280,562.5 279.8,562.5 267.6,544.6 267.6,571.7 263.9,571.7 	"/>
	<polygon class="st0" points="338,538.2 362.2,538.2 362.2,541.6 341.8,541.6 341.8,553.1 360.1,553.1 360.1,556.5 341.8,556.5 
		341.8,568.3 362.5,568.3 362.5,571.7 338,571.7 	"/>
	<polygon class="st0" points="402.6,538.2 406.4,538.2 406.4,568.2 425.2,568.2 425.2,571.7 402.6,571.7 	"/>
	<rect x="465.1" y="538.2" class="st0" width="3.8" height="33.5"/>
	<path class="st0" d="M523.6,538h3.5l15.3,33.7h-4.1l-3.9-8.9h-18.2l-4,8.9h-3.9L523.6,538z M533,559.4l-7.6-17.1l-7.7,17.1H533z
		 M528.5,528.3l3.8,1.8l-5.4,5.2h-3L528.5,528.3z"/>
	<path class="st1" d="M-137.6,359.9h32.3c4.9,0,9.4,0.6,13.4,1.9c4,1.2,7.5,3.1,10.4,5.4c2.9,2.4,5.2,5.3,6.8,8.7
		c1.6,3.4,2.4,7.3,2.4,11.7v0.3c0,4.7-0.9,8.9-2.8,12.6c-1.9,3.6-4.4,6.6-7.6,9.1c-3.2,2.4-6.9,4.2-11.1,5.4
		c-4.2,1.2-8.6,1.8-13.3,1.8h-24v33.8h-6.6V359.9z M-106.6,410.6c4.2,0,7.9-0.5,11.3-1.6c3.4-1,6.3-2.5,8.7-4.5
		c2.4-2,4.3-4.3,5.7-7.1c1.4-2.8,2-5.9,2-9.2V388c0-3.6-0.7-6.8-2-9.6c-1.3-2.7-3.2-5-5.5-6.8c-2.4-1.8-5.2-3.2-8.5-4.2
		c-3.3-1-6.9-1.4-10.9-1.4H-131v44.7H-106.6z"/>
	<path class="st1" d="M2,359.3h6.4l41.4,91.3h-7.2l-11.3-25.4h-52.5l-11.3,25.4h-6.9L2,359.3z M28.4,419.1L5.1,366.6l-23.5,52.4
		H28.4z"/>
	<path class="st1" d="M89.6,359.9h37.4c5.5,0,10.4,0.8,14.6,2.4c4.2,1.6,7.7,3.8,10.4,6.5c2.1,2.2,3.8,4.7,5,7.6
		c1.2,2.9,1.8,6,1.8,9.3v0.3c0,3.8-0.7,7.2-2,10.2c-1.3,3-3.1,5.5-5.5,7.7c-2.3,2.2-5.1,3.9-8.3,5.2c-3.2,1.3-6.6,2.3-10.4,2.8
		l29.4,38.7h-8.4L125.3,413H125H96.2v37.5h-6.6V359.9z M126.2,406.9c3.7,0,7.2-0.5,10.4-1.4c3.2-1,5.9-2.3,8.2-4.1
		c2.3-1.8,4.1-3.9,5.4-6.5c1.3-2.6,2-5.5,2-8.8v-0.3c0-6.1-2.2-11-6.7-14.5c-4.4-3.5-10.7-5.3-18.9-5.3H96.2v40.9H126.2z"/>
	<path class="st1" d="M236.2,359.3h6.4l41.4,91.3h-7.2l-11.3-25.4h-52.5l-11.3,25.4h-6.9L236.2,359.3z M262.6,419.1l-23.4-52.4
		l-23.5,52.4H262.6z"/>
	<path class="st1" d="M323.8,359.9h29.6c6.9,0,13.3,1.1,19.1,3.4c5.8,2.3,10.8,5.5,15,9.5c4.2,4.1,7.4,8.8,9.7,14.3
		c2.3,5.5,3.4,11.4,3.4,17.8v0.3c0,6.4-1.1,12.3-3.4,17.9c-2.3,5.5-5.5,10.3-9.7,14.4c-4.2,4.1-9.2,7.2-15,9.6
		c-5.8,2.3-12.2,3.5-19.1,3.5h-29.6V359.9z M353.4,444.4c6.2,0,11.8-1,16.8-3.1c5-2,9.2-4.8,12.7-8.3c3.5-3.5,6.2-7.6,8.1-12.3
		c1.9-4.7,2.9-9.8,2.9-15.3v-0.3c0-5.4-1-10.4-2.9-15.2c-1.9-4.8-4.6-8.9-8.1-12.5c-3.5-3.5-7.7-6.4-12.7-8.4
		c-5-2.1-10.6-3.1-16.8-3.1h-23v78.4H353.4z"/>
	<rect x="445" y="359.9" class="st1" width="6.6" height="90.6"/>
	<path class="st1" d="M530,451.8c-7.1,0-13.5-1.2-19.3-3.6c-5.7-2.4-11.2-6-16.6-10.9l4.3-5c2.5,2.3,4.9,4.3,7.3,6
		c2.4,1.7,4.9,3.1,7.4,4.1c2.5,1.1,5.2,1.9,8,2.5c2.8,0.6,5.8,0.8,9.1,0.8c3.3,0,6.4-0.5,9.1-1.4c2.8-0.9,5.2-2.2,7.1-3.8
		c2-1.6,3.5-3.5,4.6-5.7c1.1-2.2,1.7-4.6,1.7-7.2v-0.3c0-2.4-0.4-4.6-1.1-6.5c-0.7-1.9-2-3.6-3.9-5.2c-1.9-1.5-4.5-3-7.7-4.2
		c-3.2-1.2-7.4-2.4-12.5-3.4c-5.3-1.1-9.9-2.4-13.7-3.9c-3.8-1.5-6.9-3.3-9.3-5.3c-2.4-2-4.2-4.4-5.3-7.1c-1.1-2.7-1.7-5.7-1.7-9.2
		v-0.3c0-3.4,0.7-6.5,2.2-9.4c1.4-2.9,3.4-5.4,6-7.6c2.5-2.2,5.5-3.8,9-5c3.5-1.2,7.3-1.8,11.4-1.8c6.4,0,12,0.9,16.7,2.7
		c4.7,1.8,9.3,4.6,13.8,8.3l-4.2,5.3c-4.2-3.7-8.5-6.3-12.8-7.9s-8.9-2.3-13.8-2.3c-3.3,0-6.3,0.5-9,1.4c-2.7,0.9-5,2.1-6.9,3.7
		c-1.9,1.5-3.4,3.4-4.4,5.4c-1,2.1-1.5,4.3-1.5,6.6v0.3c0,2.4,0.4,4.6,1.1,6.5c0.7,1.9,2,3.7,3.9,5.3c1.9,1.6,4.6,3,7.9,4.3
		c3.4,1.3,7.7,2.5,13,3.6c10.3,2.2,17.8,5.2,22.4,9.1c4.6,3.9,6.9,9.2,6.9,15.9v0.3c0,3.6-0.7,7-2.2,10c-1.5,3.1-3.5,5.7-6.1,7.8
		c-2.6,2.2-5.7,3.8-9.3,5C538.3,451.2,534.3,451.8,530,451.8"/>
	<path class="st1" d="M637.2,451.9c-5.3,0-10.2-0.8-14.7-2.5c-4.4-1.7-8.3-4.2-11.6-7.5c-3.3-3.3-5.8-7.4-7.6-12.2
		c-1.8-4.8-2.7-10.4-2.7-16.8v-52.9h6.6v52.3c0,10.8,2.6,19.1,7.9,24.9c5.3,5.8,12.7,8.7,22.2,8.7c4.5,0,8.6-0.7,12.2-2.1
		c3.6-1.4,6.8-3.4,9.3-6.2c2.6-2.8,4.6-6.2,6-10.4c1.4-4.1,2.1-8.9,2.1-14.4v-52.9h6.6v52.2c0,6.5-0.9,12.2-2.7,17.2
		c-1.8,5-4.3,9.1-7.5,12.5c-3.2,3.4-7.1,5.9-11.5,7.6C647.6,451.1,642.7,451.9,637.2,451.9"/>
	<path class="st1" d="M749.8,451.8c-7.1,0-13.5-1.2-19.3-3.6c-5.7-2.4-11.2-6-16.6-10.9l4.3-5c2.5,2.3,4.9,4.3,7.3,6
		c2.4,1.7,4.9,3.1,7.4,4.1c2.5,1.1,5.2,1.9,8,2.5c2.8,0.6,5.8,0.8,9.1,0.8s6.4-0.5,9.1-1.4c2.8-0.9,5.2-2.2,7.1-3.8
		c1.9-1.6,3.5-3.5,4.6-5.7c1.1-2.2,1.7-4.6,1.7-7.2v-0.3c0-2.4-0.4-4.6-1.1-6.5c-0.7-1.9-2-3.6-3.9-5.2c-1.9-1.5-4.5-3-7.7-4.2
		c-3.2-1.2-7.4-2.4-12.5-3.4c-5.3-1.1-9.9-2.4-13.7-3.9s-6.9-3.3-9.3-5.3c-2.4-2-4.2-4.4-5.3-7.1c-1.1-2.7-1.7-5.7-1.7-9.2v-0.3
		c0-3.4,0.7-6.5,2.2-9.4c1.4-2.9,3.4-5.4,6-7.6c2.5-2.2,5.5-3.8,9-5c3.5-1.2,7.3-1.8,11.4-1.8c6.4,0,12,0.9,16.7,2.7
		c4.7,1.8,9.3,4.6,13.8,8.3l-4.2,5.3c-4.2-3.7-8.5-6.3-12.8-7.9c-4.3-1.6-8.9-2.3-13.8-2.3c-3.3,0-6.3,0.5-9,1.4
		c-2.7,0.9-5,2.1-6.9,3.7c-1.9,1.5-3.4,3.4-4.4,5.4c-1,2.1-1.5,4.3-1.5,6.6v0.3c0,2.4,0.4,4.6,1.1,6.5c0.7,1.9,2,3.7,3.9,5.3
		c1.9,1.6,4.6,3,7.9,4.3c3.4,1.3,7.7,2.5,13,3.6c10.3,2.2,17.8,5.2,22.4,9.1c4.6,3.9,6.9,9.2,6.9,15.9v0.3c0,3.6-0.7,7-2.2,10
		c-1.5,3.1-3.5,5.7-6.1,7.8c-2.6,2.2-5.7,3.8-9.3,5C758.1,451.2,754.1,451.8,749.8,451.8"/>
	<path class="st2" d="M294,189.2c0.7,0.3,1.1,0,0.7-0.8c-2.9-5.2-9.9-9.5-17-10.7c-5.4-0.9-14.1-1.9-24.2,1.1
		c-10.6,3.2-18.1,9.7-23.1,16.5c-5,6.8-5.9,16.6-4.7,23.3c1.3,7.2,3.2,9.9,8.7,13.3c4.5,2.8,7.9,2.4,10.6,1.4
		c2.5-0.9,3.1-3.2,1.4-6.1c-1.2-2-4.8-2.6-6.4-3.3c-4.6-2-9.3-10.3-2.7-22.4c0.4,8.6,8.6,18.9,18.3,12.6c5.2-3.4,6-12.9,8.3-16.3
		c4.2-6.3,8.4-10.4,14.7-11.1C285.3,186,291.8,188,294,189.2"/>
	<path class="st2" d="M301.3,183.1c0.4,0.8,1.2,1.3,0.6-1c-3.5-13.1-14-25.4-21.9-32.2c-9.3-8-22.9-14-31.9-12.9
		c-6.1,0.7-12.7,2.1-16.8,9.2c-3.1,5.3-5,12.6-4.2,19.3c0.7,6.3,6.4,14.6,8.9,9.5c1.2-2.5-1.4-5.4-1.3-10.3c0.1-7.1,3.3-7.9,3.3-7.9
		c-2,10.5,8,15.1,12.5,12.2c5.9-3.7,14.8-4.7,19.2-4.1C292.8,168,299.8,179.8,301.3,183.1"/>
	<path class="st2" d="M311.6,179.6c-1.1-27.1-12.9-70.2-34.8-80.7c-2.7-1.3-5.7-3.1-10.7-1.6c-5.4,1.5-9.7,6.4-9.4,15.6
		c0.3,7.7,3.1,10.4,11.1,14.6c8,4.1,17.7,11.6,25.4,21.2c8.9,11.1,15.5,21.8,17.3,30.8C311.3,182,311.7,180.8,311.6,179.6"/>
	<path class="st2" d="M363.1,186.8c6.3,0.7,10.5,4.8,14.7,11.1c2.3,3.5,3.1,12.9,8.3,16.3c9.7,6.3,17.9-4,18.3-12.6
		c6.5,12.2,1.9,20.4-2.7,22.4c-1.7,0.7-5.2,1.3-6.4,3.3c-1.7,2.9-1,5.2,1.4,6.1c2.8,1,6.1,1.3,10.6-1.5c5.5-3.4,7.4-6.1,8.7-13.3
		c1.2-6.7,0.3-16.5-4.7-23.3c-5-6.8-12.5-13.4-23.1-16.5c-10.1-3-18.8-2-24.2-1.1c-7.1,1.2-14,5.5-17,10.7c-0.4,0.7,0.1,1,0.7,0.8
		C349.9,188,356.4,186,363.1,186.8"/>
	<path class="st2" d="M372.1,165.1c4.4-0.5,13.3,0.4,19.2,4.1c4.5,2.9,14.6-1.8,12.5-12.3c0,0,3.2,0.8,3.3,7.9
		c0.1,4.9-2.6,7.8-1.3,10.3c2.6,5.1,8.2-3.2,8.9-9.5c0.8-6.7-1.2-14.1-4.2-19.3c-4.1-7.1-10.7-8.5-16.8-9.2
		c-9.1-1.1-22.7,4.9-31.9,12.9c-7.9,6.8-18.5,19.1-21.9,32.2c-0.6,2.3,0.2,1.9,0.6,1C341.9,179.8,348.8,168,372.1,165.1"/>
	<path class="st2" d="M330,179.6c1.1-27.1,12.9-70.2,34.8-80.7c2.7-1.3,5.7-3.1,10.7-1.6c5.4,1.5,9.7,6.4,9.4,15.6
		c-0.3,7.7-3.1,10.4-11.1,14.6c-8,4.1-17.7,11.6-25.4,21.2c-8.9,11.1-15.5,21.8-17.3,30.8C330.3,182,330,180.8,330,179.6"/>
	<path class="st2" d="M332.2,224.4c0,5.9-5.1,10.7-11.4,10.7c-6.3,0-11.4-4.8-11.4-10.7c0-5.9,5.1-10.7,11.4-10.7
		C327,213.7,332.2,218.5,332.2,224.4"/>
</g>
<g>
	<path class="st2" d="M293.9,202.8c-1.6,2.8-2.7,5.4-2.7,8.3c0,2,0.5,4,1.7,6.3c1.4,2.6,3.1,3.5,4.2,3.7c1,0.2,1.7,0,2.1-0.1
		c1.8-5.5,5.1-8.5,8.3-11.4c3.3-3,7.5-4.7,11.5-4.7h3.5c4,0,8.2,1.7,11.5,4.7c3.1,2.8,6.3,5.8,8.4,11.5c0.5,0,1.9,0,1.9,0
		c1.2-0.3,2.9-1.1,4.2-3.7c1.2-2.3,1.7-4.3,1.7-6.3c0-2.9-1.1-5.5-2.7-8.3c-7.8-13.6-22.2-15.1-26.4-15.3h-0.8
		C316.1,187.7,301.7,189.2,293.9,202.8"/>
	<path class="st2" d="M335.6,109.6c-6.2,16.3-10.8,41.6-12.8,56.7c-0.4,3.9-0.9,10.1-1.2,11.5l0.1,0.1h-0.1
		c-0.1,0.5-0.2,0.8-0.3,0.8c-0.1,0-0.2-0.3-0.4-0.8h-0.1l0.1-0.1c-0.3-1.5-1.3-7.4-1.6-12.3c-2.1-15.2-6.3-39.8-12.4-56
		c-3.4-8.9-3.8-11.9,1.8-18.2c7-7.8,12.6-19.6,12.6-19.6c0.1,0,5.7,11.8,12.7,19.6C339.5,97.7,339,100.6,335.6,109.6"/>
</g>
</svg>
